<svg width="78" height="89" viewBox="0 0 78 89" fill="none" xmlns="http://www.w3.org/2000/svg">
<path d="M57.9686 48.8918L40.69 53.3847C39.6222 53.6623 38.5017 53.6679 37.4311 53.401L19.2034 48.8557C16.3128 48.135 14.2842 45.5384 14.2842 42.5592V22.6448C14.284 10.3408 24.2585 0.366455 36.5626 0.366455H40.5465C52.8505 0.366455 62.8249 10.3408 62.8249 22.6448V42.6114C62.8249 45.5664 60.8285 48.1481 57.9686 48.8918Z" fill="#FD9727"/>
<path d="M40.5462 0.366455H36.5623C35.5617 0.366455 34.5767 0.433546 33.6108 0.561347C44.5196 2.00544 52.9379 11.3415 52.9379 22.6448V42.6114C52.9379 45.5664 50.9416 48.1483 48.0817 48.892L34.0156 52.5494L37.4311 53.401C38.5016 53.668 39.622 53.6623 40.6899 53.3847L57.9685 48.8918C60.8284 48.1481 62.8248 45.5664 62.8248 42.6113V22.6448C62.8246 10.3408 52.8503 0.366455 40.5462 0.366455Z" fill="#FF6D3A"/>
<path d="M15.3151 36.5529H20.0425V25.011H15.3151C13.9262 25.011 12.8003 26.1369 12.8003 27.5258V34.0379C12.8003 35.427 13.9262 36.5529 15.3151 36.5529Z" fill="#3D6687"/>
<path d="M62.7455 36.5529H58.0181V25.011H62.7455C64.1344 25.011 65.2603 26.1369 65.2603 27.5258V34.0379C65.2603 35.427 64.1344 36.5529 62.7455 36.5529Z" fill="#3D6687"/>
<path d="M49.7054 56.6918C48.0521 56.3594 46.8626 54.907 46.8626 53.2206V45.2399H39.0308H31.1993V53.2206C31.1993 54.907 30.0098 56.3594 28.3565 56.6918L26.4482 57.0753V69.8915H39.0308H51.6136V57.0753L49.7054 56.6918Z" fill="#FED9A8"/>
<path d="M66.0107 60.9948L50.3025 56.097C49.8149 55.9449 49.2832 56.0683 48.9123 56.4197L39.0303 65.7847L29.1482 56.4198C28.7774 56.0685 28.2457 55.945 27.7581 56.0971L12.0498 60.995C5.08546 63.0455 0.303711 69.4383 0.303711 76.6983V87.1631C0.303711 87.9961 0.979107 88.6715 1.81214 88.6715H76.2486C77.0816 88.6715 77.757 87.9961 77.757 87.1631V76.6983C77.7569 69.4381 72.9751 63.0453 66.0107 60.9948Z" fill="#0077B6"/>
<path d="M66.011 60.9948L50.3027 56.097C49.8151 55.9449 49.2834 56.0683 48.9126 56.4197L47.0654 58.1702L56.1243 60.9948C63.0886 63.0453 67.8704 69.4381 67.8704 76.6981V88.6713H76.2489C77.0819 88.6713 77.7573 87.996 77.7573 87.1629V76.6981C77.7571 69.4381 72.9754 63.0453 66.011 60.9948Z" fill="#00B4D8"/>
<path d="M39.0302 51.8754C28.2487 51.8754 19.5088 43.1353 19.5088 32.354V26.8679C19.5088 16.0866 28.2489 7.34644 39.0302 7.34644C49.8116 7.34644 58.5517 16.0866 58.5517 26.8679V32.354C58.5517 43.1355 49.8117 51.8754 39.0302 51.8754Z" fill="#FED9A8"/>
<path d="M48.665 9.88684V32.3541C48.665 41.4274 42.4745 49.0544 34.0869 51.2434C35.6659 51.6555 37.3223 51.8755 39.0303 51.8755C49.8118 51.8755 58.5517 43.1354 58.5517 32.3541V26.868C58.5519 19.5906 54.5692 13.244 48.665 9.88684Z" fill="#F4C892"/>
<path d="M29.1478 56.4199L39.0299 65.7847L32.9354 67.8609C31.4422 68.3695 29.7896 67.9273 28.7499 66.7409L21.2119 58.1381L27.7577 56.0972C28.2454 55.9451 28.7772 56.0686 29.1478 56.4199Z" fill="#E6E6FA"/>
<path d="M48.9118 56.4199L39.0298 65.7847L44.5533 67.6664C46.392 68.2928 48.427 67.7481 49.7071 66.2873L56.8477 58.1381L50.302 56.0972C49.8142 55.9451 49.2825 56.0686 48.9118 56.4199Z" fill="#E6E6FA"/>
<path d="M27.3695 80.9252H17.3217C16.7637 80.9252 16.3115 80.473 16.3115 79.9151V75.4646C16.3115 74.9067 16.7637 74.4545 17.3217 74.4545H27.3695C27.9274 74.4545 28.3796 74.9067 28.3796 75.4646V79.9151C28.3798 80.4728 27.9274 80.9252 27.3695 80.9252Z" fill="#E6E6FA"/>
<path d="M62.8246 26.7598C62.8246 26.7598 54.4021 26.0913 51.5201 18.3441C51.5201 18.3441 31.1601 34.6445 14.2837 26.7598V22.6448C14.2837 10.3408 24.2582 0.366455 36.5623 0.366455H40.5462C52.8502 0.366455 62.8246 10.3408 62.8246 22.6448V26.7598Z" fill="#FD9727"/>
<path d="M40.5462 0.366455H36.5623C35.5617 0.366455 34.5767 0.433546 33.6108 0.561347C43.9834 1.93439 52.1035 10.4429 52.8769 20.9931C56.4285 26.2512 62.8246 26.7598 62.8246 26.7598V22.6448C62.8246 10.3408 52.8503 0.366455 40.5462 0.366455Z" fill="#FF6D3A"/>
<path d="M67.7099 73.8105C66.9732 73.8105 66.376 74.4076 66.376 75.1444V88.6713H69.0436V75.1443C69.0438 74.4076 68.4465 73.8105 67.7099 73.8105Z" fill="#E6E6FA"/>
<path d="M10.351 73.8105C9.61436 73.8105 9.01709 74.4076 9.01709 75.1444V88.6713H11.6847V75.1443C11.6847 74.4076 11.0876 73.8105 10.351 73.8105Z" fill="#E6E6FA"/>
<path d="M59.0955 36.553V38.986C59.0955 41.0833 57.5951 42.863 55.5279 43.2172L42.1057 45.519C41.3803 45.6432 40.8931 46.3322 41.0174 47.0577C41.1287 47.7068 41.6921 48.1653 42.3292 48.1653C42.4041 48.1653 42.4798 48.1591 42.556 48.1459L55.9782 45.8443C59.3286 45.2696 61.7605 42.3854 61.7605 38.986V36.553H59.0955Z" fill="#3D6687"/>
<path d="M42.5107 49.4484C41.2779 49.4484 40.1875 48.5613 39.9721 47.3052C39.7313 45.9017 40.6742 44.5685 42.0778 44.3277L46.4261 43.5819C47.83 43.3408 49.1629 44.2839 49.4037 45.6876C49.6444 47.0912 48.7015 48.4244 47.298 48.6652L42.9496 49.4109C42.8022 49.4361 42.6554 49.4484 42.5107 49.4484Z" fill="#E6E6FA"/>
</svg>
