<svg width="79" height="75" viewBox="0 0 79 75" fill="none" xmlns="http://www.w3.org/2000/svg">
<path d="M71.0309 58.6953L72.0863 43.5199C78.9103 36.6094 77.8037 26.9907 77.8037 26.9907C77.8037 16.8819 69.7116 8.68713 59.7295 8.68713C49.7475 8.68713 41.6554 16.8818 41.6554 26.9906V29.4186L38.5078 39.9041C38.3302 40.4959 38.7733 41.0918 39.3914 41.0918H43.4999L43.7852 50.7011C43.8302 52.2157 45.1578 53.3698 46.664 53.2036L53.1825 52.4847L54.53 60.4888" fill="#F9C5B5"/>
<g opacity="0.1">
<path d="M69.0861 43.5199L68.0308 58.901L71.0261 58.5758L72.0864 43.5199H69.0861Z" fill="#020231"/>
</g>
<path d="M31.0565 16.7531C34.2594 16.7531 36.8557 14.1568 36.8557 10.9539C36.8557 7.75108 34.2594 5.15478 31.0565 5.15478C30.8374 5.15478 30.6216 5.16795 30.4088 5.19173C29.1478 2.1903 26.1809 0.0822754 22.7212 0.0822754C18.1178 0.0822754 14.3859 3.81415 14.3859 8.41761C14.3859 8.41973 14.386 8.42185 14.386 8.42397C12.1899 8.5421 10.4453 10.36 10.4453 12.5855C10.4453 14.8872 12.3112 16.7532 14.6131 16.7532H31.0565V16.7531Z" fill="#0077B6"/>
<path opacity="0.1" d="M31.0534 5.1549C30.8342 5.1549 30.6184 5.16808 30.4056 5.19185C29.1447 2.19042 26.1778 0.0823975 22.7181 0.0823975C21.9856 0.0823975 21.2758 0.177508 20.5991 0.355007C23.1195 1.01548 25.1746 2.8256 26.1685 5.19185C26.3813 5.16823 26.5971 5.1549 26.8163 5.1549C30.0191 5.1549 32.6154 7.7512 32.6154 10.9541C32.6154 14.1568 30.0191 16.7532 26.8163 16.7532H31.0534C34.2562 16.7532 36.8525 14.1569 36.8525 10.9541C36.8524 7.7512 34.2561 5.1549 31.0534 5.1549Z" fill="#020231"/>
<path opacity="0.1" d="M6.36182 36.7682L6.55673 38.4394L23.0023 37.4712L22.6133 35.7885L6.36182 36.7682Z" fill="#020231"/>
<path d="M66.5062 37.3485L65.5312 41.4561L68.4454 41.0415L69.7966 45.7243C69.7966 45.7243 78.3943 39.6166 78.3943 28.3047C78.3943 18.9584 72.0856 12.7649 71.0547 11.8603C70.9549 11.7727 70.8987 11.6472 70.8987 11.5145V4.02912C70.8987 3.65504 70.5675 3.36774 70.1973 3.42029L60.9127 4.73882C60.7734 4.75866 60.6316 4.73003 60.5108 4.65794L55.3789 1.59245C55.1152 1.43509 54.7758 1.49628 54.5836 1.73572L49.355 8.25972C49.1472 8.519 48.7707 8.56625 48.5051 8.36634L44.9028 5.65297C44.467 5.32477 43.8513 5.68432 43.9233 6.22514L45.9751 21.6529C46.0357 22.1081 46.5556 22.3386 46.9336 22.0781L49.4796 20.3231C49.7021 20.1699 49.9985 20.1796 50.2104 20.3472L53.4275 22.8938C53.6388 23.0609 53.9341 23.0712 54.1564 22.9191L57.3797 20.7139C57.7851 20.4366 58.3361 20.723 58.3419 21.2141L58.475 32.5725C58.4789 32.9094 58.7531 33.1803 59.0899 33.1803H60.3184C60.6032 33.1803 60.8506 32.9849 60.9167 32.7079L66.5062 37.3485Z" fill="#7C4238"/>
<g opacity="0.1">
<path d="M71.0548 11.8601C70.955 11.7726 70.8988 11.6471 70.8988 11.5144V4.02899C70.8988 3.6549 70.5676 3.3676 70.1974 3.42016L66.7041 3.91631C66.7109 3.95311 66.7165 3.99021 66.7165 4.02899V11.5147C66.7165 11.6474 66.7729 11.7728 66.8725 11.8604C67.9034 12.7651 74.2121 18.9586 74.2121 28.3049C74.2121 34.8705 71.3156 39.6825 68.8853 42.5649L69.797 45.7243C69.797 45.7243 78.3947 39.6166 78.3947 28.3047C78.3943 18.9583 72.0857 12.7648 71.0548 11.8601Z" fill="#020231"/>
</g>
<path d="M61.4324 31.7339C63.3165 29.8497 66.0423 29.5208 67.5205 30.9989C68.9986 32.4771 68.6697 35.2029 66.7855 37.087C64.9013 38.9712 62.1755 39.3002 60.6974 37.822C60.6974 37.8222 58.0035 35.2183 61.4324 31.7339Z" fill="#FFAEAE"/>
<path d="M20.4811 35.9443L5.40381 36.9747V26.3363L25.4044 27.7262V35.585L20.4811 35.9443Z" fill="#FFC433"/>
<path d="M27.8037 36.9745H26.3263C25.8168 36.9745 25.4038 36.5615 25.4038 36.052V27.2584C25.4038 26.7489 25.8168 26.3359 26.3263 26.3359H27.8037C28.3132 26.3359 28.7262 26.7489 28.7262 27.2584V36.052C28.726 36.5617 28.3132 36.9745 27.8037 36.9745Z" fill="#DDA322"/>
<path d="M35.2177 34.4934H28.7266V28.8173H35.2177C35.6422 28.8173 35.9865 29.1615 35.9865 29.586V33.7248C35.9865 34.1495 35.6424 34.4934 35.2177 34.4934Z" fill="#FFC433"/>
<path d="M41.893 61.8211L22.8721 68.9096L19.599 47.4148L22.7903 47.016C23.6328 46.9107 24.2306 46.1423 24.1252 45.2998L24.258 39.8647L25.3133 35.5382C25.743 34.5949 25.3229 33.4717 24.3795 33.042C23.4361 32.6124 22.3129 33.0325 21.8833 33.9759L21.004 35.9064L6.36182 36.7686L7.59204 47.3266C7.6973 48.1691 8.46575 48.7669 9.30827 48.6615L11.3884 48.4015L13.7068 74.9918H44.4687L41.893 61.8211Z" fill="#F9C5B5"/>
<path d="M73.2265 58.3368V74.2664L41.8931 74.9916V71.187V66.5042V61.8212L53.4023 60.489L73.2265 58.3368Z" fill="#0077B6"/>
<path opacity="0.1" d="M73.227 74.2664V58.3368L68.8262 58.8146V74.2664H73.227Z" fill="#020231"/>
<path d="M4.82457 39.7988H2.38942C1.54039 39.7988 0.852051 39.1105 0.852051 38.2615V25.0495C0.852051 24.2004 1.54039 23.5121 2.38942 23.5121H4.82457C5.6736 23.5121 6.36194 24.2004 6.36194 25.0495V38.2615C6.36194 39.1105 5.67375 39.7988 4.82457 39.7988Z" fill="#DDA322"/>
<path opacity="0.1" d="M35.2172 32.6593H28.7261V34.218C28.7261 34.7275 28.3131 35.1405 27.8036 35.1405H26.3262C25.8167 35.1405 25.4037 34.7275 25.4037 34.218V33.7505L20.4805 34.1098L6.36194 35.0748V36.4271C6.36194 37.2761 5.6736 37.9644 4.82457 37.9644H2.38942C1.54039 37.9644 0.852051 37.2763 0.852051 36.4271V38.1485C0.852051 38.9975 1.54039 39.6858 2.38942 39.6858H4.82457C5.6736 39.6858 6.36194 38.9975 6.36194 38.1485V36.7962L20.4805 35.8311L21.9523 35.7236L22.8594 33.9359L24.575 34.1025L25.4037 35.4716V35.9391C25.4037 36.4486 25.8167 36.8616 26.3262 36.8616H27.8036C28.3131 36.8616 28.7261 36.4486 28.7261 35.9391V34.3804H35.2172C35.6417 34.3804 35.9859 34.0361 35.9859 33.6116V31.8903C35.9859 32.3152 35.6418 32.6593 35.2172 32.6593Z" fill="#020231"/>
<path d="M24.4609 33.0418C23.5175 32.6121 22.3944 33.0323 21.9647 33.9756L19.3137 39.6864C19.3137 39.6864 15.902 40.9132 15.0844 44.067C15.0242 44.2992 14.735 44.3727 14.5723 44.1965C12.2971 41.7311 8.97973 41.9841 7.02148 42.4267L7.5923 47.3261C7.69029 48.1092 8.36121 48.68 9.13193 48.672C9.19039 48.6714 9.24916 48.6684 9.30837 48.661L9.75227 48.6055L11.3911 48.4297L15.3935 48.0003C15.397 48.0102 15.4001 48.0199 15.4038 48.0297L16.4732 47.8846L22.8714 47.0161C23.714 46.9108 24.3117 46.1423 24.2063 45.2998L24.3391 39.8648L25.3944 35.5383C25.8244 34.5948 25.4041 33.4715 24.4609 33.0418Z" fill="#F2B8AD"/>
<g opacity="0.2">
<path d="M46.3556 27.9719C45.7188 27.9719 45.2026 28.4881 45.2026 29.1249V33.0366C45.2026 33.6735 45.7189 34.1895 46.3556 34.1895C46.9925 34.1895 47.5086 33.6734 47.5086 33.0366V29.1249C47.5086 28.4879 46.9925 27.9719 46.3556 27.9719Z" fill="#020231"/>
</g>
</svg>
