<svg width="78" height="77" viewBox="0 0 78 77" fill="none" xmlns="http://www.w3.org/2000/svg">
<path d="M56.0756 21.6543C58.6132 21.6543 60.6703 19.5972 60.6703 17.0597C60.6703 14.5221 58.6132 12.465 56.0756 12.465C53.5381 12.465 51.481 14.5221 51.481 17.0597C51.481 19.5972 53.5381 21.6543 56.0756 21.6543Z" fill="#D5D5D3"/>
<path d="M64.609 29.531H61.9834V26.0531L57.02 19.8493L59.0702 18.2084L64.3213 24.7722C64.5076 25.0051 64.6091 25.2945 64.609 25.5927V29.531Z" fill="#D5D5D3"/>
<path d="M40.9792 12.465L38.3537 13.7778V15.0905C38.3537 15.7869 38.0771 16.4547 37.5847 16.9471C37.0923 17.4394 36.4245 17.7161 35.7282 17.7161H27.8516V4.58838H38.3537V8.52668L39.2283 9.83945L40.9792 12.465Z" fill="#FDC8A2"/>
<path d="M39.2282 9.83953H33.1025V7.21399H38.3536V8.52676L39.2282 9.83953Z" fill="#FDB683"/>
<path d="M4.22168 54.4735H13.4111V62.3501H4.22168V54.4735Z" fill="#0077B6"/>
<path d="M17.349 76.7906C22.4242 76.7906 26.5384 72.6764 26.5384 67.6012C26.5384 62.5261 22.4242 58.4119 17.349 58.4119C12.2739 58.4119 8.15967 62.5261 8.15967 67.6012C8.15967 72.6764 12.2739 76.7906 17.349 76.7906Z" fill="#34507B"/>
<path d="M17.3494 71.5396C19.5245 71.5396 21.2877 69.7763 21.2877 67.6013C21.2877 65.4262 19.5245 63.663 17.3494 63.663C15.1744 63.663 13.4111 65.4262 13.4111 67.6013C13.4111 69.7763 15.1744 71.5396 17.3494 71.5396Z" fill="#D5D5D3"/>
<path d="M4.22173 19.0288H19.9749C20.6713 19.0288 21.3391 19.3054 21.8315 19.7978C22.3239 20.2902 22.6005 20.958 22.6005 21.6543V40.0331H1.59619V21.6543C1.59619 20.958 1.87281 20.2902 2.36519 19.7978C2.85758 19.3054 3.52539 19.0288 4.22173 19.0288Z" fill="#03045E"/>
<path d="M5.53467 28.2183H8.1602V36.0949H5.53467V28.2183Z" fill="#F5F5FF"/>
<path d="M1.59619 22.9672H22.6005V25.5927H1.59619V22.9672Z" fill="#0077B6"/>
<path d="M48.6965 63.8223L56.8918 55.627C57.6303 54.8884 58.0452 53.8868 58.0452 52.8423V42.6587C58.0452 41.266 58.5985 39.9304 59.5832 38.9456C60.568 37.9608 61.9036 37.4076 63.2963 37.4076V43.9714C63.2963 44.8334 63.4661 45.6869 63.7959 46.4833C64.1258 47.2797 64.6093 48.0033 65.2188 48.6128C65.8283 49.2223 66.5519 49.7058 67.3483 50.0356C68.1446 50.3655 68.9982 50.5353 69.8601 50.5353V55.7864H66.932C66.2004 55.7863 65.4768 55.9392 64.8077 56.2352C64.1386 56.5312 63.5387 56.9637 63.0465 57.5051L53.0439 68.5081C52.5517 69.0494 51.9519 69.482 51.2828 69.7779C50.6137 70.0739 49.8901 70.2268 49.1584 70.2268H1.59619C1.59616 66.1747 3.0183 62.2511 5.61465 59.1401C8.21101 56.0291 11.8169 53.928 15.8036 53.2032L16.0366 53.1608V47.9097H38.3537C38.3537 49.0028 37.9594 50.0592 37.2432 50.885C36.5271 51.7107 35.537 52.2504 34.4549 52.405C32.9865 52.6148 31.6431 53.3472 30.6712 54.4678C29.6993 55.5884 29.1643 57.0219 29.1643 58.5053V58.8136C29.1644 60.4479 29.8136 62.0152 30.9692 63.1708C32.1248 64.3264 33.6922 64.9757 35.3265 64.9757H45.9118C46.9563 64.9757 47.9579 64.5608 48.6965 63.8223Z" fill="#03045E"/>
<path d="M14.7704 60.3114L13.7632 57.8869C14.6468 57.5205 15.5669 57.2494 16.508 57.0784L16.9775 59.6616C16.2208 59.7989 15.4809 60.0168 14.7704 60.3114Z" fill="#F5F5FF"/>
<path d="M9.23017 65.548L6.86719 64.4036C7.88461 62.3047 9.43236 60.5077 11.3573 59.1906L12.8391 61.3581C11.292 62.4168 10.048 63.861 9.23017 65.548Z" fill="#F5F5FF"/>
<path d="M22.6003 40.0331H1.59597C1.2478 40.0331 0.913896 40.1714 0.667704 40.4176C0.421512 40.6638 0.283203 40.9977 0.283203 41.3458V42.8752C0.283164 43.4903 0.498966 44.0859 0.892996 44.5582C1.28703 45.0305 1.8343 45.3495 2.43943 45.4597L15.8018 47.8884C15.8791 47.9029 15.9577 47.91 16.0364 47.9097H22.6003C22.9484 47.9097 23.2823 47.7714 23.5285 47.5252C23.7747 47.279 23.913 46.9451 23.913 46.5969V41.3458C23.913 40.9977 23.7747 40.6638 23.5285 40.4176C23.2823 40.1714 22.9484 40.0331 22.6003 40.0331ZM21.2875 45.2842H16.1546L2.90874 42.8752V42.6586H21.2875V45.2842Z" fill="#D5D5D3"/>
<path d="M39.6667 7.21399H33.1028V10.3318C33.1029 10.9448 32.9394 11.5468 32.6292 12.0755C32.3191 12.6043 31.8735 13.0408 31.3384 13.3399C30.8033 13.6391 30.1981 13.7901 29.5852 13.7773C28.9723 13.7646 28.3739 13.5886 27.8518 13.2675C27.6712 13.1567 27.5014 13.0293 27.3447 12.8868C26.7101 12.3142 26.3122 11.5254 26.2288 10.6748L25.9482 7.86709C25.8568 6.95457 25.9576 6.03301 26.2442 5.16184C26.5308 4.29068 26.9968 3.48926 27.6122 2.80927C28.2275 2.12927 28.9786 1.58581 29.8169 1.21392C30.6552 0.842031 31.5622 0.649978 32.4793 0.650147H33.1028C34.8437 0.650147 36.5132 1.34169 37.7442 2.57265C38.9751 3.80361 39.6667 5.47315 39.6667 7.21399Z" fill="#03045E"/>
<path d="M27.8516 36.0948V38.7204C27.8516 39.7649 28.2665 40.7666 29.0051 41.5052C29.7436 42.2438 30.7454 42.6587 31.7899 42.6587H44.9176L38.3537 59.7247H44.9176L51.0876 44.8712C51.4647 43.9632 51.6256 42.98 51.5576 41.9992C51.4896 41.0184 51.1945 40.0668 50.6957 39.2196C50.1354 38.268 49.3363 37.4791 48.3776 36.9311C47.4189 36.383 46.3337 36.0948 45.2293 36.0948H27.8516Z" fill="#7A432A"/>
<path d="M43.6048 26.9054L35.7282 17.7161H27.8516V36.0948H38.3537V29.531L39.8258 31.0031C40.5644 31.7416 41.5661 32.1565 42.6105 32.1565H55.4197V26.9054H43.6048Z" fill="#03045E"/>
<path d="M58.0454 37.4076H68.5476V28.2183H66.232C65.3499 28.2182 64.4853 28.4639 63.7349 28.9276C62.9846 29.3913 62.3782 30.0548 61.9837 30.8438L58.0454 32.1566V37.4076Z" fill="#03045E"/>
<path d="M77.7366 67.6013C77.7352 69.9801 76.8109 72.2655 75.1583 73.9764C73.5057 75.6873 71.2538 76.6903 68.8765 76.7742C66.4993 76.8581 64.1822 76.0164 62.4131 74.4262C60.644 72.836 59.5609 70.6214 59.3919 68.2487C59.2228 65.876 59.981 63.5302 61.5067 61.7053C63.0325 59.8803 65.2068 58.7185 67.5719 58.4645C69.9371 58.2105 72.3085 58.8841 74.187 60.3434C76.0655 61.8028 77.3044 63.9341 77.6431 66.2886C77.7056 66.7234 77.7368 67.1621 77.7366 67.6013Z" fill="#34507B"/>
<path d="M77.6432 66.2885H67.2345L62.036 74.0864C61.0097 73.0556 60.2428 71.7958 59.7984 70.4108C59.3539 69.0258 59.2446 67.5551 59.4794 66.1196C59.7142 64.6841 60.2864 63.3248 61.149 62.1536C62.0116 60.9824 63.1399 60.0326 64.4411 59.3825C65.7423 58.7324 67.1792 58.4004 68.6337 58.414C70.0883 58.4275 71.5188 58.7861 72.8077 59.4603C74.0966 60.1346 75.207 61.1051 76.0476 62.2922C76.8883 63.4792 77.4351 64.8489 77.6432 66.2885Z" fill="#2F486E"/>
<path d="M72.3213 67.6012C72.3224 68.589 71.9526 69.5411 71.2852 70.2692C70.6178 70.9974 69.7014 71.4485 68.7173 71.5332C67.7332 71.618 66.7532 71.3303 65.9711 70.727C65.189 70.1238 64.6618 69.2489 64.4939 68.2755C64.326 67.3022 64.5296 66.3013 65.0644 65.4708C65.5992 64.6404 66.4262 64.041 67.3818 63.7912C68.3374 63.5413 69.352 63.6593 70.2248 64.1218C71.0976 64.5842 71.765 65.3575 72.0949 66.2885C72.2456 66.7097 72.3223 67.1538 72.3213 67.6012Z" fill="#CECECC"/>
<path d="M72.0948 66.2885H67.2343L65.0075 69.6279C64.7239 69.1561 64.5424 68.63 64.4747 68.0837C64.407 67.5374 64.4546 66.9829 64.6145 66.4562C64.7744 65.9294 65.0429 65.442 65.4028 65.0254C65.7627 64.6089 66.206 64.2724 66.7039 64.0378C67.2019 63.8032 67.7436 63.6756 68.2939 63.6632C68.8443 63.6509 69.3911 63.7541 69.8991 63.9662C70.4071 64.1783 70.865 64.4945 71.2432 64.8946C71.6214 65.2946 71.9115 65.7694 72.0948 66.2885Z" fill="#C6C6C4"/>
<path d="M62.6396 65.4929L66.66 69.5132C66.8863 69.7395 67.1549 69.919 67.4505 70.0415C67.7462 70.1639 68.063 70.227 68.383 70.227C68.703 70.227 69.0199 70.1639 69.3155 70.0415C69.6111 69.919 69.8798 69.7395 70.106 69.5132C70.3323 69.287 70.5118 69.0184 70.6342 68.7227C70.7567 68.4271 70.8197 68.1102 70.8197 67.7902C70.8197 67.4702 70.7567 67.1534 70.6342 66.8577C70.5118 66.5621 70.3323 66.2935 70.106 66.0672L66.0857 62.0469L62.6396 65.4929Z" fill="#D5D5D3"/>
<path d="M56.7324 71.5396H61.9835L67.2346 63.663H77.7367C77.7367 61.574 76.9069 59.5705 75.4297 58.0934C73.9526 56.6162 71.9491 55.7864 69.8601 55.7864H67.2346C64.4492 55.7864 61.778 56.8929 59.8084 58.8624C57.8389 60.8319 56.7324 63.5032 56.7324 66.2885V71.5396Z" fill="#03045E"/>
<path d="M55.4194 26.9054V32.1565L58.045 33.4692V36.0948H63.296V29.5309L55.4194 26.9054Z" fill="#FDC8A2"/>
<path d="M58.045 37.4076C59.495 37.4076 60.6705 36.2321 60.6705 34.782C60.6705 33.332 59.495 32.1565 58.045 32.1565C56.5949 32.1565 55.4194 33.332 55.4194 34.782C55.4194 36.2321 56.5949 37.4076 58.045 37.4076Z" fill="#34507B"/>
<path d="M16.0366 51.8481H25.226V54.4737H16.0366V51.8481Z" fill="#0077B6"/>
<path d="M43.2857 67.6013H18.6616V64.9757H45.9112C46.9557 64.9757 47.9574 64.5608 48.696 63.8223L48.8553 63.663L46.0704 66.4478C45.3319 67.1864 44.3302 67.6013 43.2857 67.6013Z" fill="#0077B6"/>
<path d="M67.2345 54.4735C64.4436 54.4773 61.7439 55.4675 59.6125 57.2692C57.4812 59.0709 56.0553 61.568 55.5869 64.3193H58.2599C58.7112 62.2743 59.8464 60.4444 61.4781 59.1317C63.1097 57.819 65.1403 57.102 67.2345 57.099H69.86V54.4735H67.2345Z" fill="#0077B6"/>
<path d="M35.7283 42.6587H25.2261C23.7761 42.6587 22.6006 43.8342 22.6006 45.2842C22.6006 46.7343 23.7761 47.9098 25.2261 47.9098H35.7283C37.1783 47.9098 38.3538 46.7343 38.3538 45.2842C38.3538 43.8342 37.1783 42.6587 35.7283 42.6587Z" fill="#34507B"/>
<path d="M38.3532 29.7564L34.0304 25.4336L32.1738 27.29L38.3532 33.4694V29.7564Z" fill="#0077B6"/>
<path d="M38.354 59.7246H46.2306C46.9269 59.7246 47.5948 60.0012 48.0872 60.4936C48.5795 60.986 48.8562 61.6538 48.8562 62.3501C48.8562 63.0465 48.5795 63.7143 48.0872 64.2067C47.5948 64.6991 46.9269 64.9757 46.2306 64.9757H38.354V59.7246Z" fill="#D5D5D3"/>
</svg>
