<svg width="709" height="665" viewBox="0 0 709 665" fill="none" xmlns="http://www.w3.org/2000/svg">
<g clip-path="url(#clip0_337_94)">
<path fill-rule="evenodd" clip-rule="evenodd" d="M202.325 125.274C114.17 200.43 -90.0133 422.403 44.7796 528.277C121.467 588.445 280.101 346.46 335.622 300.056C343.055 293.851 365.944 272.222 377.819 283.364C423.143 325.836 245.655 635.549 391.824 566.336C488.771 520.368 758.539 197.241 676.639 85.6864C618.76 6.77253 497.745 54.0073 435.879 101.286C402.702 126.673 375.689 158.876 342.149 183.826C339.747 185.618 335.94 191.342 334.58 188.72C325.062 170.543 492.261 -37.8404 348.766 6.24821C328.144 12.6277 315.136 21.4979 297.777 33.6452C270.945 52.2594 218.732 111.336 202.325 125.274Z" fill="#E6E6FA"/>
<path fill-rule="evenodd" clip-rule="evenodd" d="M349.174 188.589L329.866 199.557L309.652 210.917L292.927 181.773C284.339 168.198 270.887 158.131 255.117 153.476C239.347 148.822 222.354 149.904 207.356 156.517C204.871 157.584 202.464 158.81 200.149 160.187C184.874 169.194 173.934 183.681 169.736 200.462C165.537 217.243 168.423 234.945 177.759 249.675L229.519 331.648L211.843 342.135L192.716 353.496L140.05 271.873C125.531 249.058 120.351 221.846 125.522 195.548C130.692 169.25 145.842 145.754 168.015 129.644H168.241C171.079 127.558 174.029 125.618 177.079 123.833C202.355 108.943 232.729 104.339 261.524 111.034C290.319 117.728 315.179 135.172 330.636 159.532L349.174 188.589Z" fill="#FF4387"/>
<path fill-rule="evenodd" clip-rule="evenodd" d="M211.843 342.004L192.717 353.365L140.051 271.742C125.571 248.939 120.413 221.757 125.583 195.489C130.752 169.221 145.878 145.749 168.015 129.644C159.894 136.108 153.296 144.167 148.662 153.283C142.529 167.534 139.565 182.866 139.96 198.29C140.631 219.295 146.638 239.82 157.455 258.065C171.596 280.393 198.02 320.899 211.843 342.004Z" fill="black"/>
<path fill-rule="evenodd" clip-rule="evenodd" d="M329.866 199.557L309.652 210.917L292.927 181.773C284.34 168.198 270.887 158.131 255.117 153.476C239.347 148.822 222.354 149.904 207.356 156.517L205.996 155.861C233.19 137.597 268.407 136.417 295.057 156.648C309.198 167.353 318.716 182.253 328.053 196.848C328.733 197.722 329.277 198.595 329.866 199.557Z" fill="black"/>
<path fill-rule="evenodd" clip-rule="evenodd" d="M259.524 517.79C226.755 466.142 159.812 355.2 159.812 355.2L184.649 340.562L402.203 212.229L501.915 374.819C509.72 386.888 514.801 400.407 516.827 414.494C532.328 526.966 330.501 629.694 259.524 517.79Z" fill="#FF4387"/>
<path fill-rule="evenodd" clip-rule="evenodd" d="M259.524 517.79C226.755 466.142 159.812 355.2 159.812 355.2L184.649 340.562L236.726 421.835C236.726 421.835 264.917 469.026 281.325 491.748C294.695 510.1 311.827 529.544 334.807 536.535C357.786 543.527 384.663 539.113 406.69 531.816C421.046 526.82 434.596 519.892 446.938 511.236C473.543 492.84 494.618 472.959 507.762 443.77C512.104 434.742 515.153 425.188 516.827 415.368C516.807 415.15 516.807 414.931 516.827 414.713C532.328 526.966 330.501 629.694 259.524 517.79Z" fill="black"/>
<path d="M353.072 388.233C368.491 388.233 380.991 376.182 380.991 361.317C380.991 346.452 368.491 334.401 353.072 334.401C337.652 334.401 325.152 346.452 325.152 361.317C325.152 376.182 337.652 388.233 353.072 388.233Z" fill="#FFB1CD"/>
<path fill-rule="evenodd" clip-rule="evenodd" d="M368.074 367.697L353.344 376.436L375.507 438.833L414.304 415.98L368.074 367.697Z" fill="#FFB1CD"/>
<path fill-rule="evenodd" clip-rule="evenodd" d="M411.721 416.067C411.194 416.375 410.65 416.652 410.089 416.898L403.064 420.787C400.118 422.36 397.217 424.064 394.362 425.768C388.334 429.395 382.442 433.109 376.232 436.692C375.809 436.899 375.4 437.132 375.008 437.391C374.746 437.571 374.503 437.776 374.283 438.003L374.782 438.833L376.051 438.352L377.818 437.347C386.475 432.322 394.724 426.685 403.563 421.923L410.633 418.121C410.633 418.121 412.174 417.378 412.718 417.029C412.879 416.945 413.012 416.818 413.101 416.663C413.189 416.508 413.229 416.331 413.216 416.155C413.068 415.669 412.786 415.231 412.4 414.888C411.766 414.232 410.86 413.489 410.497 413.14L403.018 405.362C398.486 400.599 393.682 395.836 389.104 390.986C386.113 387.797 383.121 384.519 380.039 381.111C379.042 379.975 377.546 378.883 376.413 377.747L375.915 377.222C376.368 376.479 377.32 375.037 377.411 374.775C378.125 373.197 378.686 371.559 379.088 369.881C379.529 368.228 379.862 366.55 380.085 364.857C380.637 360.322 380.142 355.726 378.634 351.398C377.098 347.074 374.538 343.154 371.156 339.95C368.434 337.631 365.233 335.895 361.765 334.855C358.296 333.816 354.638 333.497 351.032 333.92C344.497 334.348 338.33 336.995 333.628 341.392C333.111 341.771 332.679 342.246 332.359 342.79C332.334 342.876 332.334 342.967 332.359 343.053L332.993 343.533H333.265C333.764 343.227 334.036 342.659 334.489 342.222C339.066 338.13 344.98 335.704 351.213 335.362C354.612 334.958 358.061 335.252 361.334 336.223C364.607 337.194 367.629 338.822 370.204 340.999C373.44 344.045 375.879 347.789 377.32 351.923C378.773 356.051 379.238 360.443 378.68 364.769C378.454 366.401 378.137 368.02 377.728 369.619C377.322 371.214 376.792 372.777 376.141 374.295C376.141 374.557 374.963 376.13 374.601 376.785C374.524 376.942 374.484 377.114 374.484 377.288C374.484 377.461 374.524 377.633 374.601 377.79L375.462 378.839C376.549 379.931 378.09 380.98 379.042 382.116C381.898 385.525 384.889 388.801 388.107 392.035C392.639 396.885 397.172 401.648 402.021 406.411L409.455 414.189C409.772 414.538 410.542 415.15 411.177 415.718L411.721 416.067Z" fill="black"/>
<path fill-rule="evenodd" clip-rule="evenodd" d="M382.986 241.592L382.669 242.116C382.351 242.771 382.079 243.514 381.808 244.213C378.499 252.166 375.508 260.293 372.29 268.246C371.202 270.911 370.069 273.533 368.936 276.198L367.485 279.563L368.392 279.956C368.936 278.864 369.434 277.728 369.978 276.635C371.157 274.014 372.244 271.348 373.332 268.639C376.55 260.643 379.451 252.559 382.669 244.563C382.941 243.82 383.258 243.165 383.53 242.422C383.516 242.233 383.516 242.043 383.53 241.854L382.986 241.592Z" fill="black"/>
<path fill-rule="evenodd" clip-rule="evenodd" d="M391.824 241.067L391.552 241.504C391.441 241.759 391.35 242.023 391.28 242.291C389.784 246.049 388.47 249.85 387.201 253.652C383.937 263.571 381.127 273.577 377.773 283.496L378.816 283.802C382.124 273.926 384.934 263.876 388.152 253.958C389.422 250.156 390.736 246.354 392.186 242.597L392.458 241.854C392.48 241.68 392.48 241.504 392.458 241.33L391.824 241.067Z" fill="black"/>
<path fill-rule="evenodd" clip-rule="evenodd" d="M399.71 249.151C399.71 249.806 399.302 250.418 399.121 251.073C397.58 256.754 396.13 262.478 394.362 268.159C392.595 273.839 391.099 278.208 389.422 283.19L388.198 286.947L389.15 287.253C389.694 285.768 390.283 284.282 390.782 282.884C392.867 276.898 394.815 270.868 396.583 264.75C397.761 260.686 398.985 256.623 399.892 252.516C400.118 251.511 400.3 250.462 400.481 249.413L399.71 249.151Z" fill="black"/>
<path fill-rule="evenodd" clip-rule="evenodd" d="M406.328 265.1C406.286 265.419 406.286 265.742 406.328 266.061C405.512 269.688 404.56 273.315 403.518 276.898C402.475 280.481 401.07 284.85 399.665 288.739L400.753 289.089C402.112 285.2 403.472 281.224 404.605 277.204C405.739 273.184 406.554 269.906 407.279 266.28C407.323 265.946 407.323 265.608 407.279 265.275V265.1H406.328Z" fill="black"/>
<path fill-rule="evenodd" clip-rule="evenodd" d="M412.492 281.311L411.948 282.796L411.676 283.802C411.177 285.768 410.724 287.734 410.226 289.7L411.359 289.963C411.903 287.69 412.537 285.593 412.99 283.19L413.262 281.486L412.492 281.311Z" fill="black"/>
<path fill-rule="evenodd" clip-rule="evenodd" d="M306.842 493.67C306.842 493.146 307.114 492.665 307.205 492.185V491.18C308.066 483.62 309.199 476.105 310.513 468.633C311.964 460.287 313.641 452.029 315.635 443.814L314.502 443.552C312.508 451.767 310.785 460.054 309.335 468.415C308.021 475.93 306.933 483.489 306.026 491.049V492.054C306.026 492.578 306.026 493.059 306.026 493.583L306.842 493.67Z" fill="black"/>
<path fill-rule="evenodd" clip-rule="evenodd" d="M315.136 501.71C315.15 501.565 315.15 501.419 315.136 501.273C315.181 500.691 315.181 500.107 315.136 499.526C315.771 492.928 316.451 486.417 317.312 479.775C317.856 475.886 318.49 471.997 319.125 468.152C319.125 467.147 319.397 466.186 319.578 465.225H318.536C318.536 466.186 318.082 467.147 317.901 468.109C317.131 471.954 316.632 475.886 316.133 479.775C315.272 486.373 314.592 492.884 314.003 499.569C314.003 500.181 314.003 500.749 314.003 501.361C313.986 501.506 313.986 501.652 314.003 501.798L315.136 501.71Z" fill="black"/>
<path fill-rule="evenodd" clip-rule="evenodd" d="M325.198 501.055C325.198 500.749 325.198 500.4 325.424 500.094C325.447 499.876 325.447 499.656 325.424 499.438C325.878 494.501 326.286 489.519 326.739 484.582H325.606C325.198 488.951 324.745 493.321 324.427 497.69C324.382 498.462 324.382 499.235 324.427 500.006C324.427 500.356 324.427 500.662 324.427 501.011L325.198 501.055Z" fill="black"/>
<path fill-rule="evenodd" clip-rule="evenodd" d="M335.033 505.818C335.033 505.381 335.35 504.944 335.486 504.507C335.622 504.07 335.486 503.589 335.486 503.152C335.894 500.268 336.211 497.384 336.528 494.413C336.528 493.845 336.528 493.277 336.528 492.709C336.528 492.141 336.528 492.403 336.528 492.272H335.531V492.709C335.531 493.277 335.531 493.845 335.214 494.413C334.806 497.297 334.489 500.181 334.126 503.152C334.126 503.589 334.126 504.07 334.126 504.507C334.08 504.957 334.08 505.411 334.126 505.861L335.033 505.818Z" fill="black"/>
<path fill-rule="evenodd" clip-rule="evenodd" d="M248.148 113.652C247.694 115.574 247.287 117.497 246.924 119.463C246.38 122.391 245.836 125.362 245.247 128.202C244.794 130.3 244.341 132.353 243.706 134.363L244.658 134.625C245.292 132.615 245.836 130.518 246.29 128.421C246.924 125.493 247.377 122.522 247.876 119.682C248.193 117.715 248.51 115.749 248.918 113.826L248.148 113.652Z" fill="white"/>
<path fill-rule="evenodd" clip-rule="evenodd" d="M255.218 112.953C254.221 117.104 253.178 121.255 252.317 125.493C252 126.935 251.683 128.377 251.456 129.863V130.955H252.408C252.634 129.732 252.952 128.552 253.178 127.372C254.176 122.566 255.082 117.715 256.124 112.953H255.218Z" fill="white"/>
<path fill-rule="evenodd" clip-rule="evenodd" d="M260.385 114.395V114.788C260.019 116.01 259.716 117.25 259.479 118.502C259.207 119.769 258.844 120.992 258.663 122.26V122.697H259.57L261.519 114.482L260.385 114.395Z" fill="white"/>
<path fill-rule="evenodd" clip-rule="evenodd" d="M265.416 115.968C265.416 115.968 265.416 115.968 265.144 116.23C265.1 116.636 265.1 117.046 265.144 117.453H266.141C266.323 117.095 266.446 116.712 266.504 116.317C266.504 116.317 266.504 116.099 266.504 115.968H265.416Z" fill="white"/>
<path fill-rule="evenodd" clip-rule="evenodd" d="M549.551 241.067C559.123 241.076 568.477 243.82 576.431 248.953C584.386 254.086 590.583 261.378 594.24 269.906C597.896 278.434 598.848 287.816 596.976 296.865C595.103 305.915 590.489 314.226 583.718 320.748C576.946 327.27 568.321 331.71 558.932 333.507C549.544 335.304 539.813 334.378 530.971 330.844C522.129 327.311 514.571 321.329 509.255 313.656C503.938 305.983 501.1 296.962 501.1 287.734C501.1 281.602 502.353 275.53 504.789 269.865C507.224 264.201 510.794 259.054 515.293 254.72C519.793 250.386 525.135 246.95 531.013 244.607C536.891 242.265 543.19 241.062 549.551 241.067ZM549.551 269.732C553.244 269.732 556.854 270.787 559.925 272.765C562.996 274.744 565.389 277.555 566.803 280.845C568.216 284.134 568.586 287.754 567.865 291.246C567.145 294.738 565.366 297.946 562.755 300.464C560.143 302.981 556.816 304.696 553.194 305.391C549.571 306.085 545.817 305.729 542.405 304.366C538.993 303.004 536.076 300.696 534.024 297.736C531.973 294.775 530.877 291.295 530.877 287.734C530.877 282.959 532.845 278.381 536.347 275.004C539.849 271.628 544.598 269.732 549.551 269.732Z" fill="#FF4387"/>
<path fill-rule="evenodd" clip-rule="evenodd" d="M513.699 321.904L512.249 317.228C541.936 338.464 565.142 329.594 582.365 309.363C587.602 303.705 591.162 296.791 592.669 289.348C594.177 281.905 593.576 274.208 590.931 267.066C588.463 261.283 584.88 256.005 580.371 251.51C579.781 250.899 596.098 266.017 597.956 269.95C607.882 291.186 600.223 306.785 585.9 323.258C580.597 329.376 558.071 337.547 549.641 336.629C536.618 334.54 524.298 329.493 513.699 321.904Z" fill="black"/>
<path d="M628.765 57.1257L543.186 259.803L568.709 269.819L654.288 67.1423L628.765 57.1257Z" fill="#FF4387"/>
<path d="M650.261 65.5448L628.764 116.457L687.576 139.538L709.073 88.6257L650.261 65.5448Z" fill="#FF4387"/>
<path d="M636.114 110.171L632.815 117.982L687.682 139.514L690.98 131.703L636.114 110.171Z" fill="black"/>
<path d="M616.883 134.35L604.203 164.38L641.564 179.042L654.244 149.013L616.883 134.35Z" fill="#FF4387"/>
<path d="M615.228 159.591L611.93 167.402L641.609 179.05L644.907 171.239L615.228 159.591Z" fill="black"/>
<path fill-rule="evenodd" clip-rule="evenodd" d="M409.591 80.9674L412.447 79.875C416.163 78.2145 419.653 76.292 423.415 74.7627C426.494 73.5059 429.659 72.4547 432.888 71.6166C455.142 66.0673 466.88 69.9561 474.45 78.1272C482.019 86.2982 484.965 96.8288 489.996 107.097C495.026 117.366 501.417 126.498 513.7 131.261C522.54 134.712 532.355 135.067 541.438 132.266C550.59 129.161 559.288 124.931 567.318 119.682C570.808 117.628 574.298 115.312 577.788 113.52L576.791 111.729C573.165 113.52 569.539 115.487 565.958 117.497C558.015 122.447 549.496 126.48 540.577 129.513C532.129 132.153 522.989 131.859 514.742 128.683C501.145 123.483 495.253 112.297 490.086 100.98C484.24 88.2209 479.299 75.3308 466.79 69.7377C458.994 66.2421 448.207 65.3682 432.344 69.4756C428.161 70.6025 424.083 72.0641 420.152 73.8451C417.037 75.1147 414.009 76.5742 411.087 78.2147C410.362 78.6516 409.682 79.1322 409.002 79.6128L409.591 80.9674Z" fill="#9433F5"/>
<path fill-rule="evenodd" clip-rule="evenodd" d="M125.909 537.016C126.453 534.569 127.269 532.122 128.039 529.675C135.155 507.391 151.789 485.106 171.505 478.727C185.918 474.095 201.645 478.115 215.514 496.729C227.525 512.896 230.653 537.235 233.372 559.869C235.412 576.779 237.225 592.771 242.029 603.914C243.127 607.136 244.901 610.106 247.24 612.639C249.579 615.172 252.433 617.214 255.626 618.639C262.651 621.392 272.215 620.562 285.494 614.575C289.075 612.915 292.656 611.123 296.191 609.201C299.726 607.278 303.08 605.181 306.434 603.083L305.21 601.205C301.176 603.477 296.961 605.574 292.701 607.846C289.845 609.201 287.035 610.599 284.18 611.866C271.988 617.328 263.24 618.333 256.986 615.799C254.191 614.5 251.698 612.669 249.657 610.416C247.616 608.163 246.07 605.535 245.111 602.69C240.579 591.723 238.675 576.036 236.635 559.475C233.78 536.317 230.335 511.411 218.007 495.025C203.096 475.143 186.281 471.167 170.735 476.192C150.339 482.877 131.983 505.643 125.864 529.02C125.26 531.559 124.791 534.125 124.459 536.71L125.909 537.016Z" fill="#9433F5"/>
<path fill-rule="evenodd" clip-rule="evenodd" d="M625.649 234.513C625.872 234.664 626.116 234.782 626.374 234.863C627.403 235.065 628.454 235.139 629.502 235.081C641.364 235.695 653.027 231.947 662.135 224.594C668.073 219.706 672.995 213.775 676.639 207.116C679.005 202.713 680.976 198.123 682.531 193.396L680.582 192.74C678.891 197.275 676.798 201.66 674.327 205.849C670.782 212.183 666.067 217.84 660.413 222.541C651.825 229.524 640.814 233.115 629.593 232.59C628.597 232.525 627.597 232.525 626.601 232.59H625.831L625.649 234.513Z" fill="#279FF2"/>
<path fill-rule="evenodd" clip-rule="evenodd" d="M189.136 515.824C190.677 517.179 192.127 518.621 193.668 520.194C199.699 525.82 204.736 532.358 208.58 539.551C213.367 548.539 215.171 558.729 213.747 568.739C210.755 587.353 200.149 608.065 198.201 627.422C197.159 634.31 197.874 641.34 200.282 647.902C202.691 654.465 206.721 660.363 212.024 665.087L213.611 663.558C210.764 660.736 208.297 657.58 206.268 654.163C201.666 646.075 199.811 636.798 200.965 627.64C202.778 608.196 213.384 587.659 216.33 569.132C217.798 558.636 215.884 547.958 210.846 538.546C207.039 530.991 201.761 524.211 195.3 518.577C193.647 517.238 191.922 515.984 190.133 514.819L189.136 515.824Z" fill="#279FF2"/>
<path fill-rule="evenodd" clip-rule="evenodd" d="M87.5653 250.986C85.9409 247.417 85.3158 243.5 85.7524 239.625C86.1208 237.125 87.032 234.728 88.4265 232.59C92.279 226.56 99.3495 221.885 105.74 216.641C112.648 211.865 117.488 204.803 119.337 196.804C120.878 187.366 117.207 179.02 112.675 170.805C107.8 163.449 104.16 155.397 101.888 146.947C101.146 142.753 101.393 138.452 102.613 134.363C104.495 128.488 107.577 123.036 111.678 118.327C115.797 113.566 120.448 109.258 125.547 105.481L124.368 103.951C119.043 107.772 114.192 112.17 109.91 117.06C105.548 121.949 102.263 127.643 100.256 133.795C98.9068 138.219 98.6124 142.879 99.3949 147.428C101.655 156.144 105.358 164.451 110.363 172.029C114.669 179.806 118.295 187.628 116.89 196.498C115.077 203.964 110.48 210.528 103.972 214.938C97.3552 220.356 90.0581 225.162 86.1149 231.411C84.5247 233.855 83.5471 236.623 83.2596 239.494C83.0224 243.719 83.9612 247.928 85.9789 251.685L87.5653 250.986Z" fill="#279FF2"/>
<path fill-rule="evenodd" clip-rule="evenodd" d="M565.64 377.179C565.64 377.179 565.64 377.179 565.368 377.179C565.096 377.179 565.006 378.009 564.779 378.446C563.011 382.16 561.289 385.743 558.524 390.768C556.621 394.307 554.219 398.589 550.955 404.139C550.258 405.196 549.622 406.29 549.052 407.416C548.843 407.916 548.662 408.426 548.508 408.945L550.139 409.863C550.502 409.426 550.91 409.033 551.227 408.596C551.544 408.159 552.496 406.367 553.131 405.318C557.255 398.196 560.02 393.171 562.196 389.064C564.371 384.956 565.64 382.247 567.09 379.057C567.09 378.708 567.589 378.402 567.544 378.052C567.499 377.703 567.544 378.052 567.544 377.834L565.64 377.179Z" fill="#F56C2C"/>
<path fill-rule="evenodd" clip-rule="evenodd" d="M540.849 386.617L543.296 388.102C551.5 392.996 559.522 398.065 567.68 403.002C569.493 404.095 571.306 405.231 573.165 406.236L574.615 406.935L575.567 405.449L574.705 404.75C573.482 403.92 572.167 403.177 570.898 402.391C564.598 398.545 558.298 394.657 551.953 390.855C548.931 388.962 545.91 387.127 542.888 385.35C542.571 385.35 542.344 384.825 541.982 384.782C541.619 384.738 541.982 384.782 541.982 384.782L541.03 386.223L540.849 386.617Z" fill="#F56C2C"/>
<path fill-rule="evenodd" clip-rule="evenodd" d="M552.451 382.378C552.451 383.165 552.768 383.951 552.995 384.694C555.08 391.642 557.21 398.458 559.522 405.275C560.156 407.197 560.927 409.076 561.697 410.955L563.601 410.256C563.057 408.77 562.604 407.241 562.151 405.886C560.202 399.769 558.525 393.564 556.394 387.491C556.024 386.331 555.585 385.193 555.08 384.082C554.717 383.339 554.264 382.684 553.856 381.941L552.451 382.378Z" fill="#F56C2C"/>
<path fill-rule="evenodd" clip-rule="evenodd" d="M543.84 400.031C545.562 399.682 547.33 399.376 549.098 398.939C553.131 397.89 557.12 396.536 561.063 395.225C566.221 393.596 571.25 391.61 576.11 389.282C576.639 389.017 577.154 388.725 577.651 388.408L576.926 386.879L574.252 387.884C570.762 389.326 567.272 390.724 563.692 391.991C558.298 393.87 552.769 395.312 547.421 397.104C546.061 397.541 544.746 398.109 543.387 398.633L543.84 400.031Z" fill="#F56C2C"/>
<path fill-rule="evenodd" clip-rule="evenodd" d="M95.0889 273.839C94.3184 274.756 93.548 275.587 92.8681 276.504C90.058 280.175 87.5651 284.107 84.9817 287.909C78.2284 297.959 71.3846 307.965 64.9486 318.146C64.2234 319.282 63.5436 320.462 62.8638 321.598L64.4048 322.559C64.807 322.127 65.1852 321.675 65.5379 321.205C66.3537 320.156 67.0789 319.02 67.804 317.884C76.5062 305.037 84.8004 291.667 93.6385 279.082C94.1371 278.383 94.6357 277.684 95.0889 276.941C95.5422 276.199 95.9501 275.456 96.358 274.669L95.0889 273.839Z" fill="#F56C2C"/>
<path fill-rule="evenodd" clip-rule="evenodd" d="M53.1646 284.369C54.5696 285.462 55.9746 286.598 57.6969 287.603C71.0221 296.692 85.7523 303.814 98.7603 313.296L99.9387 311.854C95.4064 308.62 91.1006 305.605 86.3416 302.678C77.866 297.347 69.0732 292.366 60.5524 286.991C59.6912 286.467 58.8754 285.899 58.0142 285.418L54.0711 283.146L53.1646 284.369Z" fill="#F56C2C"/>
<path fill-rule="evenodd" clip-rule="evenodd" d="M73.7417 276.504C73.7417 277.291 73.7417 278.034 73.7417 278.864C73.7417 279.694 73.7417 279.869 73.7417 280.393C74.4669 285.462 75.4187 290.53 76.4158 295.599C77.8964 303.173 79.4978 310.718 81.2201 318.233C81.5827 319.719 81.8546 321.248 82.3078 322.603L82.7157 323.695L84.71 323.302C84.71 322.821 84.71 322.341 84.71 321.86C84.71 321.379 84.2568 319.632 84.0302 318.539C81.356 305.824 78.3647 293.196 76.2345 280.393C76.2345 279.694 76.2344 278.951 75.9172 278.252C75.5999 277.553 75.4639 276.898 75.2373 276.155L73.7417 276.504Z" fill="#F56C2C"/>
<path fill-rule="evenodd" clip-rule="evenodd" d="M49.9014 303.683C51.1251 303.683 52.3942 303.683 53.618 303.683C58.5129 303.421 63.3625 302.721 68.2574 302.11C80.9934 300.449 93.6841 298.483 106.375 296.561L110.817 295.687L110.59 294.026C108.55 294.026 106.511 294.332 104.471 294.594C89.9223 296.298 75.5093 298.964 60.915 300.799L53.3007 301.629L50.0373 302.11L49.9014 303.683Z" fill="#F56C2C"/>
<path d="M631.632 66.4607C633.671 76.1174 636.164 85.5118 638.567 95.0374" stroke="white" stroke-width="0.1" stroke-linejoin="round"/>
<path d="M638.93 68.4706C640.833 73.8888 642.012 79.3944 643.462 84.9437" stroke="white" stroke-width="0.1" stroke-linejoin="round"/>
<path d="M647.768 76.9038C649.309 82.5842 650.895 88.2646 652.617 93.8576" stroke="white" stroke-width="0.1" stroke-linejoin="round"/>
<path d="M656.606 80.8801C655.744 78.0399 654.838 75.1997 653.841 72.4032" stroke="white" stroke-width="0.1" stroke-linejoin="round"/>
<path d="M625.967 153.589C624.109 149.22 622.069 144.501 619.984 140.044" stroke="white" stroke-width="0.1" stroke-linejoin="round"/>
<path d="M628.369 144.938C629.82 148.084 631.361 151.23 632.902 154.288" stroke="white" stroke-width="0.1" stroke-linejoin="round"/>
<path d="M636.799 146.642C637.705 148.739 638.657 151.011 639.654 152.89" stroke="white" stroke-width="0.1" stroke-linejoin="round"/>
<path d="M535.908 247.622C537.223 253.433 538.673 259.245 540.441 265.1" stroke="white" stroke-width="0.1" stroke-linejoin="round"/>
<path d="M545.925 259.114C544.837 254.22 543.568 249.369 542.254 244.563" stroke="white" stroke-width="0.1" stroke-linejoin="round"/>
<path d="M548.191 247.228C549.098 251.161 550.14 255.05 551.228 258.939" stroke="white" stroke-width="0.1" stroke-linejoin="round"/>
<path d="M553.086 243.908C553.675 247.185 554.355 250.505 555.126 253.783" stroke="white" stroke-width="0.1" stroke-linejoin="round"/>
<path fill-rule="evenodd" clip-rule="evenodd" d="M544.066 308.446L544.61 310.412C545.471 313.034 546.378 315.568 547.33 318.146C547.602 318.976 547.874 319.807 548.236 320.637C548.599 321.467 548.735 321.685 549.007 322.21L549.822 321.904C549.802 321.686 549.802 321.466 549.822 321.248L549.278 319.719C548.191 316.792 547.239 313.82 546.106 310.98C545.743 310.062 545.335 309.189 544.928 308.315L544.066 308.446Z" fill="black"/>
<path fill-rule="evenodd" clip-rule="evenodd" d="M548.871 309.669L549.143 310.587C549.959 313.383 550.865 316.18 551.862 318.933C552.225 319.981 552.588 321.074 553.041 322.079L553.449 322.822L554.31 322.516L553.947 321.467L552.452 317.097C551.681 314.738 551.001 312.291 550.095 309.975L549.823 309.189L548.871 309.669Z" fill="black"/>
<path fill-rule="evenodd" clip-rule="evenodd" d="M552.769 308.795C552.769 309.538 553.177 310.281 553.403 311.024C553.902 312.772 554.491 314.519 555.08 316.267L556.848 321.205L557.754 320.899C556.576 317.622 555.624 314.257 554.446 310.98L553.494 308.533L552.769 308.795Z" fill="black"/>
<path fill-rule="evenodd" clip-rule="evenodd" d="M558.344 313.383C558.616 314.563 558.888 315.786 559.25 316.966C559.613 318.146 559.93 319.326 560.293 320.506L561.245 320.243L559.205 313.165L558.344 313.383Z" fill="black"/>
<path fill-rule="evenodd" clip-rule="evenodd" d="M673.965 104.869C674.237 105.655 674.509 106.486 674.826 107.316C676.004 110.549 677.228 113.783 678.497 116.973C679.766 120.162 680.627 122.347 681.806 124.969L682.667 124.619C681.912 122.813 681.186 121.022 680.491 119.245C678.815 114.875 677.319 110.768 675.551 106.573C675.279 105.918 674.962 105.262 674.645 104.607L673.965 104.869Z" fill="black"/>
<path fill-rule="evenodd" clip-rule="evenodd" d="M680.491 107.796C680.491 108.496 680.899 109.195 681.126 109.85C682.078 112.603 683.12 115.312 684.162 118.021C685.205 120.73 685.975 122.391 687.018 124.75L687.924 124.357C685.613 119.463 684.117 114.176 681.987 109.195L681.171 107.534L680.491 107.796Z" fill="black"/>
<path fill-rule="evenodd" clip-rule="evenodd" d="M682.531 100.893C682.531 100.893 682.531 101.111 682.531 101.286C682.643 101.664 682.794 102.03 682.984 102.378C684.797 106.486 686.112 110.68 687.517 114.875C687.671 115.28 687.852 115.674 688.061 116.055C688.109 116.173 688.187 116.278 688.287 116.361L689.692 115.836V115.443C689.568 114.922 689.401 114.41 689.194 113.914C688.333 111.423 687.335 108.976 686.293 106.486C685.25 103.995 684.707 102.859 683.8 101.024C683.8 101.024 683.8 100.761 683.8 100.674H683.483L682.531 100.893Z" fill="black"/>
<path fill-rule="evenodd" clip-rule="evenodd" d="M689.194 105.437C689.172 105.567 689.172 105.7 689.194 105.83C689.602 107.359 690.191 108.801 690.689 110.2C691.188 111.598 691.233 111.773 691.551 112.515C691.683 112.844 691.834 113.165 692.004 113.477L693.001 113.084L692.774 112.341C692.004 110.156 691.279 107.971 690.372 105.743C690.313 105.519 690.205 105.311 690.055 105.131C690.055 105.131 690.055 105.131 690.055 105.131L689.194 105.437Z" fill="black"/>
<path fill-rule="evenodd" clip-rule="evenodd" d="M690.689 101.723C690.662 101.867 690.662 102.015 690.689 102.16C691.233 103.383 692.048 104.476 692.592 105.655L693.544 105.306C693.297 104.586 692.994 103.885 692.638 103.209C692.366 102.64 692.094 102.116 691.776 101.592L691.459 101.242L690.689 101.723Z" fill="black"/>
</g>
<defs>
<clipPath id="clip0_337_94">
<rect width="709" height="665" fill="white"/>
</clipPath>
</defs>
</svg>
