<svg width="79" height="86" viewBox="0 0 79 86" fill="none" xmlns="http://www.w3.org/2000/svg">
<path d="M26.6763 11.809H17.142C16.8324 11.809 16.5356 11.9318 16.3167 12.1507L1.24851 27.2189C1.02961 27.4378 0.906738 27.7346 0.906738 28.0442V84.1503C0.906738 84.7949 1.42924 85.3174 2.07378 85.3174H32.4137L42.9117 57.9961V28.0442C42.9117 27.7346 42.7889 27.4378 42.57 27.2189L27.5018 12.1507C27.2827 11.932 26.9858 11.809 26.6763 11.809ZM21.9091 32.8114C19.0094 32.8114 16.6585 30.4606 16.6585 27.5607C16.6585 24.6608 19.0092 22.31 21.9091 22.31C24.8091 22.31 27.1598 24.6608 27.1598 27.5607C27.1598 30.4606 24.8089 32.8114 21.9091 32.8114Z" fill="#0077B6"/>
<path d="M16.3173 12.1514L1.24868 27.2186C1.02978 27.4375 0.906738 27.7342 0.906738 28.0438V84.1508C0.906738 84.7954 1.42924 85.3179 2.07378 85.3179H6.15692V28.0437C6.15692 27.7341 6.27996 27.4373 6.49887 27.2184L21.9093 11.8094H17.1424C16.833 11.8096 16.5361 11.9325 16.3173 12.1514Z" fill="#03045E"/>
<path d="M36.4943 80.0668H7.32476C6.68022 80.0668 6.15771 79.5443 6.15771 78.8998V39.2291C6.15771 38.5845 6.68022 38.062 7.32476 38.062H36.4943C37.1388 38.062 37.6613 38.5845 37.6613 39.2291V78.8998C37.6613 79.5443 37.1388 80.0668 36.4943 80.0668Z" fill="#00B4D8"/>
<path d="M71.2687 77.2707H72.6448C74.1648 77.2707 75.397 78.5029 75.397 80.0229C75.397 81.5429 74.1648 82.7751 72.6448 82.7751H55.3704C54.6244 82.7751 53.8905 82.5442 53.3003 82.088C51.7378 80.8803 50.0851 80.6257 48.0744 80.5064L46.4072 78.5382V64.9935L48.0744 63.0046C52.7851 57.6223 58.7557 57.1209 58.3267 49.0648C58.2524 47.6687 59.3099 46.528 60.708 46.528H60.7562C61.8273 46.528 62.7718 47.2295 63.0839 48.2542C64.1951 51.9037 64.5694 55.529 63.4969 59.2612C63.2818 60.0096 63.837 60.7565 64.6156 60.7565H75.6078C77.1278 60.7565 78.36 61.9888 78.36 63.5087C78.36 65.0287 77.1278 66.261 75.6078 66.261H72.1838H74.6758C76.1958 66.261 77.428 67.4932 77.428 69.0132C77.428 70.5332 76.1958 71.7654 74.6758 71.7654H72.1838H73.7608C75.2808 71.7654 76.5131 72.9976 76.5131 74.5176C76.5131 76.0376 75.2808 77.2698 73.7608 77.2698H71.2687V77.2707Z" fill="#FFCEBF"/>
<path d="M61.7088 49.0865C62.1051 56.714 56.751 57.5571 52.1814 62.2211C51.7163 62.6957 51.4552 63.3346 51.4552 63.9992V78.2684C51.4552 79.4783 52.3221 80.512 53.5125 80.7285C54.6432 80.9343 55.6692 81.3131 56.6582 82.072C57.248 82.5233 57.9683 82.7752 58.712 82.7752H55.3311C54.5874 82.7752 53.8673 82.5233 53.2773 82.072C51.7221 80.8786 50.0757 80.625 48.0744 80.5066L46.4072 78.5385V64.9938L48.0744 63.0048C52.7804 57.6278 58.7457 57.1225 58.3281 49.0865C58.2554 47.6954 59.3642 46.5291 60.7553 46.5291C61.2878 46.5291 61.7915 46.7014 62.2006 47.0007C62.2885 47.0649 62.3714 47.1359 62.449 47.2119C61.9606 47.6803 61.67 48.353 61.7088 49.0865Z" fill="#FFB09E"/>
<path d="M73.7632 73.0344H72.1862C71.486 73.0344 70.9185 72.4669 70.9185 71.7666C70.9185 71.0664 71.486 70.4989 72.1862 70.4989H73.7632C74.4634 70.4989 75.0309 71.0664 75.0309 71.7666C75.0309 72.4669 74.4634 73.0344 73.7632 73.0344Z" fill="#FFB09E"/>
<path d="M74.6782 67.5294H72.1862C71.486 67.5294 70.9185 66.9619 70.9185 66.2616C70.9185 65.5614 71.486 64.9939 72.1862 64.9939H74.6782C75.3784 64.9939 75.9459 65.5614 75.9459 66.2616C75.9459 66.9619 75.3784 67.5294 74.6782 67.5294Z" fill="#FFB09E"/>
<path d="M72.6448 78.5385H71.2687C70.5685 78.5385 70.001 77.971 70.001 77.2708C70.001 76.5706 70.5685 76.0031 71.2687 76.0031H72.6448C73.3451 76.0031 73.9126 76.5706 73.9126 77.2708C73.9126 77.971 73.3451 78.5385 72.6448 78.5385Z" fill="#FFB09E"/>
<path d="M42.8181 82.7755H46.9079C47.5524 82.7755 48.0749 82.253 48.0749 81.6085V61.9167C48.0749 61.2721 47.5524 60.7496 46.9079 60.7496H42.8181L41.1509 62.6714V80.8439L42.8181 82.7755Z" fill="#F5FCFF"/>
<path d="M46.1987 60.7502V82.7755H42.8181L41.1509 80.8437V62.6712L42.8181 60.7502H46.1987Z" fill="#D8ECFE"/>
<path d="M32.4131 57.9962H42.908V84.2336C42.908 84.8782 42.3855 85.4007 41.7409 85.4007H32.4131V57.9962Z" fill="#8CBDF9"/>
<path d="M32.4131 57.9965H35.7938V85.4004H32.4131V57.9965Z" fill="#73A2DA"/>
<path d="M37.6647 65.666C36.9645 65.666 36.397 65.0983 36.397 64.3982C36.397 63.698 36.9647 63.1305 37.6647 63.1305C38.3649 63.1305 38.9325 63.698 38.9325 64.3982C38.9325 65.0983 38.3648 65.666 37.6647 65.666Z" fill="white"/>
<path d="M21.9069 28.8286C21.2067 28.8286 20.6392 28.2611 20.6392 27.5609V1.30778C20.6392 0.607555 21.2068 0.0400391 21.9069 0.0400391C22.607 0.0400391 23.1746 0.607555 23.1746 1.30778V27.5609C23.1746 28.2611 22.6071 28.8286 21.9069 28.8286Z" fill="white"/>
<path d="M26.8562 56.4393C26.8562 54.2926 25.1098 52.5462 22.9631 52.5462H21.521C20.7724 52.5462 20.1634 51.9371 20.1634 51.1887C20.1634 50.4402 20.7724 49.8311 21.521 49.8311H22.8094C23.3007 49.8311 23.7257 50.1472 23.8669 50.6179C24.068 51.2886 24.7747 51.6689 25.4454 51.468C26.116 51.2669 26.4968 50.56 26.2955 49.8895C25.8989 48.5672 24.8219 47.6173 23.5098 47.3647V45.7948C23.5098 45.0946 22.9421 44.5271 22.2421 44.5271C21.542 44.5271 20.9743 45.0946 20.9743 45.7948V47.3347C19.0857 47.6014 17.6279 49.2276 17.6279 51.1886C17.6279 53.3353 19.3743 55.0815 21.521 55.0815H22.9631C23.7117 55.0815 24.3206 55.6905 24.3206 56.4391C24.3206 57.1877 23.7115 57.7967 22.9631 57.7967H21.3366C20.8451 57.7967 20.4202 57.4804 20.2789 57.0098C20.0779 56.3391 19.371 55.9583 18.7003 56.1598C18.0297 56.3611 17.6491 57.0678 17.8503 57.7385C18.2806 59.1728 19.511 60.17 20.9742 60.3128V61.833C20.9742 62.5332 21.5419 63.1007 22.2419 63.1007C22.942 63.1007 23.5096 62.5332 23.5096 61.833V60.2932C25.3986 60.0264 26.8562 58.4002 26.8562 56.4393Z" fill="white"/>
<path d="M27.4916 76.0836H16.9904C16.2902 76.0836 15.7227 75.5161 15.7227 74.8158C15.7227 74.1156 16.2903 73.5481 16.9904 73.5481H27.4916C28.1918 73.5481 28.7593 74.1156 28.7593 74.8158C28.7593 75.5161 28.1918 76.0836 27.4916 76.0836Z" fill="white"/>
<path d="M27.4916 70.8386H16.9904C16.2902 70.8386 15.7227 70.2711 15.7227 69.5708C15.7227 68.8706 16.2903 68.3031 16.9904 68.3031H27.4916C28.1918 68.3031 28.7593 68.8706 28.7593 69.5708C28.7593 70.2711 28.1918 70.8386 27.4916 70.8386Z" fill="white"/>
</svg>
