<svg width="78" height="78" viewBox="0 0 78 78" fill="none" xmlns="http://www.w3.org/2000/svg">
<path d="M50.3711 59.1246H4.98828V13.7418H27.6797V24.1479L34.4871 17.3405L41.2945 24.1479V13.7418H63.9859V45.5098H50.3711V59.1246Z" fill="#03045E"/>
<path d="M50.3713 59.1246V45.5098H63.9861V13.7418H41.2947V24.1479L34.4873 17.3405V59.1246H50.3713Z" fill="#0077B6"/>
<path d="M27.6799 18.2801H0.450195V0.126953H23.1416C25.6481 0.126953 27.6799 2.15874 27.6799 4.66523V18.2801Z" fill="#0077B6"/>
<path d="M68.5241 18.2801H41.2944V4.66523C41.2944 2.15874 43.3262 0.126953 45.8327 0.126953H68.5241V18.2801Z" fill="#00B4D8"/>
<path d="M45.833 35.1036L34.4873 23.7579L23.1416 35.1036V0.126953H45.833V35.1036Z" fill="#F5F5FF"/>
<path d="M62.0236 77.4911L61.3013 77.2518C52.3768 74.2784 46.1353 65.8148 46.1353 56.2179V41.0608H77.9032V56.2179C77.9032 65.7577 71.8094 74.2093 62.7416 77.2495L62.0236 77.4911Z" fill="#F3F5F9"/>
<path d="M62.0195 77.4897L62.0239 77.4911L62.7419 77.2495C71.8097 74.2093 77.9035 65.7577 77.9035 56.2179V41.0608H62.0195V77.4897Z" fill="#E1E6F0"/>
<path d="M62.0162 72.6893C58.8308 71.4738 56.0844 69.3635 54.0449 66.5531C51.8396 63.5144 50.6738 59.9405 50.6738 56.2179V45.5991H73.3652V56.2179C73.3652 63.55 68.8354 70.0756 62.0162 72.6893Z" fill="#8FCC52"/>
<path d="M62.0195 72.688C68.8368 70.0735 73.3652 63.5488 73.3652 56.2179V45.5991H62.0195V72.688Z" fill="#54B324"/>
<path d="M59.751 64.6917L53.6084 58.549L56.817 55.3403L59.751 58.2743L67.2232 50.802L70.4318 54.0107L59.751 64.6917Z" fill="#F3F5F9"/>
<path d="M62.0195 62.4226L70.4312 54.0107L67.2227 50.802L62.0195 56.0051V62.4226Z" fill="#E1E6F0"/>
<path d="M34.4873 23.7579L45.833 35.1036V0.126953H34.4873V23.7579Z" fill="#C8C8C8"/>
</svg>
